<svg xmlns="http://www.w3.org/2000/svg" width="640" height="512" viewBox="0 0 640 512"><style>.st0{fill:none}</style><path d="M394.035 384H144V192h55.987c29.552 0 43.072-36.528 21.26-55.917l-71.987-64c-12.124-10.777-30.395-10.777-42.519 0l-71.987 64C12.949 155.465 26.449 192 56.013 192H112v200c0 13.255 10.745 24 24 24h264.63c10.507 0 16.015-12.618 8.751-20.21-2.094-2.188-3.881-4.313-5.56-6.669-2.267-3.179-5.882-5.121-9.786-5.121zM56 160l72-64 72 64H56zm543.987 160H544V120c0-13.255-10.745-24-24-24H255.371c-10.507 0-16.016 12.618-8.752 20.21 2.096 2.19 3.883 4.315 5.563 6.673 2.264 3.177 5.877 5.118 9.778 5.118H512v192h-55.987c-29.552 0-43.072 36.528-21.26 55.917l71.987 64c12.124 10.777 30.395 10.777 42.519 0l71.987-64C643.051 356.535 629.551 320 599.987 320zM528 416l-72-64h144l-72 64z"/></svg>