<svg xmlns="http://www.w3.org/2000/svg" viewBox="0 0 640 512"><path d="M608.485 356.485l-87.995 88c-4.686 4.686-12.284 4.687-16.971 0l-88.005-88c-7.58-7.58-2.14-20.485 8.485-20.485h64V152H270.056c-3.856 0-7.487-1.841-9.728-4.978-2.795-3.913-7.563-8.661-21.502-22.502-7.601-7.547-2.26-20.519 8.451-20.519H512c13.255 0 24 10.745 24 24v208h64c10.683 0 16.021 12.948 8.485 20.484zM369.944 360H152V176h64c10.625 0 16.066-12.905 8.485-20.485l-88.005-88c-4.686-4.687-12.285-4.686-16.971 0l-87.995 88C23.979 163.051 29.317 175.999 40 176h64v208c0 13.255 10.745 24 24 24h264.723c10.711 0 16.052-12.972 8.451-20.519-13.939-13.841-18.706-18.589-21.502-22.502-2.241-3.138-5.872-4.979-9.728-4.979z"/></svg>